<svg width="15" height="11" viewBox="0 0 15 11" fill="none" xmlns="http://www.w3.org/2000/svg">
<path d="M13.2803 5.11118L9.53025 2.36118C9.3888 2.26099 9.19935 2.20555 9.0027 2.20681C8.80605 2.20806 8.61794 2.2659 8.47889 2.36788C8.33983 2.46985 8.26095 2.6078 8.25924 2.75201C8.25754 2.89622 8.33313 3.03515 8.46975 3.13888L10.9395 4.95003H2.25C2.05109 4.95003 1.86032 5.00798 1.71967 5.11112C1.57902 5.21427 1.5 5.35416 1.5 5.50003C1.5 5.6459 1.57902 5.78579 1.71967 5.88894C1.86032 5.99208 2.05109 6.05003 2.25 6.05003H10.9395L8.46975 7.86118C8.33313 7.96491 8.25754 8.10384 8.25924 8.24805C8.26095 8.39226 8.33983 8.5302 8.47889 8.63218C8.61794 8.73415 8.80605 8.792 9.0027 8.79325C9.19935 8.7945 9.3888 8.73907 9.53025 8.63888L13.2803 5.88888C13.4209 5.78574 13.4998 5.64587 13.4998 5.50003C13.4998 5.35419 13.4209 5.21432 13.2803 5.11118Z" fill="black"/>
</svg>
